<?xml version="1.0" encoding="utf-8"?>
<!-- Generator: Adobe Illustrator 22.0.1, SVG Export Plug-In . SVG Version: 6.00 Build 0)  -->
<svg version="1.1" id="Layer_1" xmlns="http://www.w3.org/2000/svg" xmlns:xlink="http://www.w3.org/1999/xlink" x="0px" y="0px"
	 viewBox="0 0 584 243" style="enable-background:new 0 0 584 243;" xml:space="preserve">
<style type="text/css">
	.st0{fill:#FF0BE8;}
	.st1{fill:#374BAF;}
	.st2{fill:#FFFFFF;}
	.st3{fill:#030879;}
	.st4{clip-path:url(#SVGID_2_);}
	.st5{fill:none;}
	.st6{font-family:'Courier';}
	.st7{font-size:16px;}
	.st8{clip-path:url(#SVGID_4_);}
</style>
<g>
	<g>
		<g>
			<path class="st0" d="M439.6,125l-3.5,31.6l-11.1-8.4l5-6.3l-5.6-6.4l7.7-69.2l-42.2-20.2l-3.5,31.6l-16.3-12.4l-42.2-20.1
				l37.4,28.4l20.5,9.7l-2.9,25.8l-26.2-12.5c-0.3-12.9-6.8-23.6-17.3-28.6l-42.2-20.1c11.9,5.7,18.7,18.7,17.1,33.9l-28.5-13.6
				c-1.2-0.6-2.6-0.9-4.1-1l0.2-2l-42.2-20.1l-3.3,38.4l-17.7-18.3l-42.2-20.1l12.3,12.7l-25-11.7l-2.2,19.3l-38.8-18.5
				c2.3,1.1,4.3,2.6,5.8,4.6c1.7,2.5,2.5,5.2,3,8.9l-10.5,4.4l-8.6-4.1c-0.7-0.3-1.6-0.6-2.6-0.7c-0.4-0.1-0.8-0.1-1.3-0.1
				c-1.8,0-4.4,0.5-5.9,2.4c-1,1.4-1.3,3-0.9,4.2c0.3,1.3,1.2,2.1,2.3,2.6l24.8,11.8c0,0.1,0.1,0.2,0.1,0.3
				c2.2,5.9,1.3,14.9-2.2,21.5l-20.5-9.8c-1.7-0.8-4.2-0.8-6.4-1c-2.4-0.2-5.7-0.7-8.9-2.2l33.9,16.1c-0.8,1.2-1.7,2.3-2.7,3.3
				L93,95.2c1.3,3.4,2.8,5.5,4.9,6.5l21.3,10.1c-5,4-10.6,5.7-15.2,6.3c-1.1,0.2-2.4,0.3-3.8,0.3c-3.7,0-8.5-0.7-12.7-2.7l36.7,17.5
				l13.8,33.1l-17.2-5.9c-2.5-6-6.8-10.8-12.8-13.6l-42.2-20.1c8.1,3.8,13,11.1,14.8,20.2l-14.5,5.6l-11.4-5.4
				c-1.5-0.7-3.3-1.1-5.4-1.1c-7.4,0-13.6,6.8-14.5,14.7c-0.7,6.1,1.9,11.5,6.5,13.7l27.4,13.1c-6.4,6.4-15.1,10.3-25.8,10.3
				c-4.7,0-9-1-12.9-2.8l42.2,20.2c3.9,1.9,8.2,2.9,12.9,2.9c8.5,0,15.7-2.5,21.5-6.6l8.2,3.9h23.6l4.5-8.6h7.6l18,8.6h48.4
				l-1.4-1.8l6,1.8h71.1l0.8-7.4l14.4,6.9c4.2,2,9,2.7,12.8,2.7c1.4,0,2.7-0.1,3.8-0.3c4.9-0.6,10.9-2.6,16-7l10.7,5.1h48.6l0.5-4.4
				l9.3,4.4h21.6l2-17.5l40.6,19.4l8.1-72.2L439.6,125z M198.8,191.8l-1.2-1.5l1.3,0.6L198.8,191.8z M145,82.4
				c0.4-0.5,0.8-0.9,1.3-1.2l12,5.7l1-0.4l-0.5,4l-14.5-6.9C144.4,83.2,144.7,82.8,145,82.4z"/>
			<polygon class="st0" points="198.9,190.9 198.8,191.8 197.7,190.3 			"/>
		</g>
		<g>
			<path class="st0" d="M307.3,160.1c2.3,6.1,1.2,15.4-2.5,22.2c-5.8,10.2-15.4,14-22.6,14.9c-1.1,0.2-2.3,0.3-3.8,0.3h-0.1l0.1,0.1
				l-73.5-2.1l7.9-70.3h19.8l-6.1,54.1c0,0,25.9,1,29.8,1s15-5.5,15-5.5c2.1,5,4.2,6.7,8.4,6.8c2.1,0,4.8-0.5,6.5-3
				c0.8-1.2,1.2-2.8,0.6-4.4c-1.1-3.1-5-3-8.5-3.2c-5.1-0.4-14.1-2.4-17.3-11.3c-2.5-6.8-1.5-15.2,2.6-22.3
				c5.3-9.3,13.2-12.4,20-13.5c1.4-0.2,3.2-0.4,5.2-0.4c6.1,0,14.1,1.5,18.3,7.1c1.6,2.5,2.5,5.2,2.9,8.9l-15.5,6.4
				c-1-4.6-2.2-6.3-6.2-6.9c-0.4,0-0.8-0.1-1.3-0.1c-1.8,0-4.3,0.5-5.9,2.4c-1.1,1.4-1.3,3-1,4.2c0.9,3.8,6.3,3.5,9.3,3.8
				C295.2,149.6,303.8,151.1,307.3,160.1z"/>
		</g>
		<g>
			<polygon class="st0" points="180.3,125 174.2,179.1 200.2,179.1 198.4,195.3 154.4,195.3 162.3,125 			"/>
		</g>
		<g>
			<polygon class="st0" points="365.4,125 363.5,141.8 336.4,141.8 335.3,151.7 361.7,151.7 359.7,169.3 333.3,169.3 332.2,179.1 
				359.3,179.1 357.5,195.3 308.8,195.3 316.7,125 			"/>
		</g>
		<g>
			<polygon class="st0" points="377.5,124.1 414.9,152.5 418,125 439.6,125 431.5,197.2 430,197.2 391.9,168.6 388.9,195.3 
				367.3,195.3 375.3,124.1 			"/>
		</g>
		<g>
			<polygon class="st0" points="327.9,45.2 365.2,73.6 368.3,46.1 389.9,46.1 381.8,118.3 380.3,118.3 342.2,89.8 339.2,116.4 
				317.7,116.4 325.6,45.2 			"/>
		</g>
		<g>
			<path class="st0" d="M283.3,44.9c20,0,33.1,16,30.8,35.7c-2.3,19.7-19.1,35.7-39.1,35.7c-19.7,0-33.1-16-30.8-35.7
				S263.5,44.9,283.3,44.9z M277.7,94.9c7.1,0,13.6-6.5,14.5-14.2s-3.8-14.2-11.2-14.2c-7.6,0-13.8,6.5-14.7,14.2
				C265.3,88.3,270,94.9,277.7,94.9"/>
		</g>
		<g>
			<polygon class="st0" points="239.5,45.2 233.5,116.4 212.7,116.4 214.4,90.6 199.9,102.4 186.9,89.9 183.1,116.4 163.8,116.4 
				174.5,45.2 176.3,45.2 203.2,73 237.9,45.2 			"/>
		</g>
		<g>
			<polygon class="st0" points="163.8,46.1 155.9,116.4 134.3,116.4 142.2,46.1 			"/>
		</g>
		<g>
			<path class="st0" d="M110.3,44.5c6.1,0,14.1,1.5,18.3,7.1c1.7,2.5,2.5,5.2,3,8.8l-15.5,6.4c-1-4.5-2.2-6.3-6.2-6.9
				c-0.3-0.1-0.8-0.1-1.2-0.1c-1.8,0-4.4,0.5-5.9,2.4c-1,1.4-1.3,2.9-0.9,4.2c0.9,3.7,6.3,3.5,9.4,3.7c5.8,0.5,14.4,2,17.8,11
				c2.3,6.1,1.2,15.4-2.6,22.2c-5.8,10.2-15.3,14-22.6,14.9c-1.1,0.2-2.4,0.3-3.8,0.3c-6.3,0-15.5-2-20.2-8.9
				c-1.2-1.7-2.1-3.8-3-7.9L93,95.3c1.9,5,4.2,7.2,8.4,7.2c2.1,0,4.8-0.5,6.5-2.9c0.8-1.2,1.2-2.8,0.6-4.4c-1.1-3.1-5-3-8.5-3.2
				c-5.1-0.4-14.1-2.4-17.3-11.3c-2.5-6.8-1.5-15.2,2.6-22.3c5.3-9.3,13.2-12.4,20-13.5C106.4,44.6,108.3,44.5,110.3,44.5z"/>
		</g>
		<g>
			<path class="st0" d="M51.2,123.8c16.8,0,26.5,9.5,29.2,23.2L60,154.9c-1-5.2-4.6-8.8-10.9-8.8c-7.4,0-13.6,6.8-14.5,14.7
				c-0.9,8,3.8,14.7,11.2,14.7c6.3,0,10.4-3.5,12.8-8.7l19.3,5.9c-5.4,14.5-17.6,25.1-35.1,25.1c-18.9,0-32.4-16.6-30.2-37.1
				C15,140.4,32.3,123.8,51.2,123.8z"/>
		</g>
		<g>
			<path class="st0" d="M120.2,124.1l29.6,71.2h-23.6l-2.6-8.6h-23l-4.5,8.6H72.6l45.6-71.2H120.2z M108.3,171.9h11l-4-13.4
				L108.3,171.9"/>
		</g>
		<polygon class="st0" points="282.8,62.3 237.3,62.3 238.9,45.2 283.3,44.9 		"/>
	</g>
	<g>
		<g>
			<path class="st1" d="M449.4,115.9l-3.5,31.6l-11.1-8.4l5-6.3l-5.6-6.4l7.7-69.2L399.7,37l-3.5,31.6l-16.3-12.4l-42.2-20.1
				l37.4,28.4l20.5,9.7l-2.9,25.8l-26.2-12.5c-0.3-12.9-6.8-23.6-17.3-28.6L307,38.8c11.9,5.7,18.7,18.7,17.1,33.9l-28.5-13.6
				c-1.2-0.6-2.6-0.9-4.1-1l0.2-2L249.5,36l-3.3,38.4l-17.7-18.3L186.3,36l12.3,12.7l-25-11.7l-2.2,19.3l-38.8-18.5
				c2.3,1.1,4.3,2.6,5.8,4.6c1.7,2.5,2.5,5.2,3,8.9l-10.5,4.4l-8.6-4.1c-0.7-0.3-1.6-0.6-2.6-0.7c-0.4-0.1-0.8-0.1-1.3-0.1
				c-1.8,0-4.4,0.5-5.9,2.4c-1,1.4-1.3,3-0.9,4.2c0.3,1.3,1.2,2.1,2.3,2.6l24.8,11.8c0,0.1,0.1,0.2,0.1,0.3
				c2.2,5.9,1.3,14.9-2.2,21.5l-20.5-9.8c-1.7-0.8-4.2-0.8-6.4-1c-2.4-0.2-5.7-0.7-8.9-2.2l33.9,16.1c-0.8,1.2-1.7,2.3-2.7,3.3
				l-29.2-13.9c1.3,3.4,2.8,5.5,4.9,6.5l21.3,10.1c-5,4-10.6,5.7-15.2,6.3c-1.1,0.2-2.4,0.3-3.8,0.3c-3.7,0-8.5-0.7-12.7-2.7
				l36.7,17.5l13.8,33.1l-17.2-5.9c-2.5-6-6.8-10.8-12.8-13.6l-42.2-20.1c8.1,3.8,13,11.1,14.8,20.2l-14.5,5.6L64.5,138
				c-1.5-0.7-3.3-1.1-5.4-1.1c-7.4,0-13.6,6.8-14.5,14.7c-0.7,6.1,1.9,11.5,6.5,13.7l27.4,13.1c-6.4,6.4-15.1,10.3-25.8,10.3
				c-4.7,0-9-1-12.9-2.8L82,206.1c3.9,1.9,8.2,2.9,12.9,2.9c8.5,0,15.7-2.5,21.5-6.6l8.2,3.9h23.6l4.5-8.6h7.6l18,8.6h48.4l-1.4-1.8
				l6,1.8h71.1l0.8-7.4l14.4,6.9c4.2,2,9,2.7,12.8,2.7c1.4,0,2.7-0.1,3.8-0.3c4.9-0.6,10.9-2.6,16-7l10.7,5.1h48.6l0.5-4.4l9.3,4.4
				h21.6l2-17.5l40.6,19.4l8.1-72.2L449.4,115.9z M208.6,182.7l-1.2-1.5l1.3,0.6L208.6,182.7z M154.8,73.3c0.4-0.5,0.8-0.9,1.3-1.2
				l12,5.7l1-0.4l-0.5,4l-14.5-6.9C154.2,74.1,154.5,73.7,154.8,73.3z"/>
			<polygon class="st1" points="208.7,181.8 208.6,182.7 207.5,181.2 			"/>
		</g>
		<g>
			<path class="st2" d="M317.1,151c2.3,6.1,1.2,15.4-2.5,22.2c-5.8,10.2-15.4,14-22.6,14.9c-1.1,0.2-2.3,0.3-3.8,0.3h-0.1l0.1,0.1
				l-73.5-2.1l7.9-70.3h19.8l-6.1,54.1c0,0,25.9,1,29.8,1s15-5.5,15-5.5c2.1,5,4.2,6.7,8.4,6.8c2.1,0,4.8-0.5,6.5-3
				c0.8-1.2,1.2-2.8,0.6-4.4c-1.1-3.1-5-3-8.5-3.2c-5.1-0.4-14.1-2.4-17.3-11.3c-2.5-6.8-1.5-15.2,2.6-22.3
				c5.3-9.3,13.2-12.4,20-13.5c1.4-0.2,3.2-0.4,5.2-0.4c6.1,0,14.1,1.5,18.3,7.1c1.6,2.5,2.5,5.2,2.9,8.9l-15.5,6.4
				c-1-4.6-2.2-6.3-6.2-6.9c-0.4,0-0.8-0.1-1.3-0.1c-1.8,0-4.3,0.5-5.9,2.4c-1.1,1.4-1.3,3-1,4.2c0.9,3.8,6.3,3.5,9.3,3.8
				C305,140.5,313.6,142,317.1,151z"/>
		</g>
		<g>
			<polygon class="st2" points="190.1,115.9 184,170 210,170 208.2,186.2 164.2,186.2 172.1,115.9 			"/>
		</g>
		<g>
			<polygon class="st2" points="375.2,115.9 373.3,132.7 346.2,132.7 345.1,142.6 371.5,142.6 369.5,160.2 343.1,160.2 342,170 
				369.1,170 367.3,186.2 318.6,186.2 326.5,115.9 			"/>
		</g>
		<g>
			<polygon class="st2" points="387.3,115 424.7,143.4 427.8,115.9 449.4,115.9 441.3,188.1 439.8,188.1 401.7,159.5 398.7,186.2 
				377.1,186.2 385.1,115 			"/>
		</g>
		<g>
			<polygon class="st2" points="337.7,36.1 375,64.5 378.1,37 399.7,37 391.6,109.2 390.1,109.2 352,80.7 349,107.3 327.5,107.3 
				335.4,36.1 			"/>
		</g>
		<g>
			<path class="st2" d="M293.1,35.8c20,0,33.1,16,30.8,35.7c-2.3,19.7-19.1,35.7-39.1,35.7c-19.7,0-33.1-16-30.8-35.7
				S273.3,35.8,293.1,35.8z M287.5,85.8c7.1,0,13.6-6.5,14.5-14.2s-3.8-14.2-11.2-14.2c-7.6,0-13.8,6.5-14.7,14.2
				C275.1,79.2,279.8,85.8,287.5,85.8"/>
		</g>
		<g>
			<polygon class="st2" points="249.3,36.1 243.3,107.3 222.5,107.3 224.2,81.5 209.7,93.3 196.7,80.8 192.9,107.3 173.6,107.3 
				184.3,36.1 186.1,36.1 213,63.9 247.7,36.1 			"/>
		</g>
		<g>
			<polygon class="st2" points="173.6,37 165.7,107.3 144.1,107.3 152,37 			"/>
		</g>
		<g>
			<path class="st2" d="M120.1,35.4c6.1,0,14.1,1.5,18.3,7.1c1.7,2.5,2.5,5.2,3,8.8l-15.5,6.4c-1-4.5-2.2-6.3-6.2-6.9
				c-0.3-0.1-0.8-0.1-1.2-0.1c-1.8,0-4.4,0.5-5.9,2.4c-1,1.4-1.3,2.9-0.9,4.2c0.9,3.7,6.3,3.5,9.4,3.7c5.8,0.5,14.4,2,17.8,11
				c2.3,6.1,1.2,15.4-2.6,22.2c-5.8,10.2-15.3,14-22.6,14.9c-1.1,0.2-2.4,0.3-3.8,0.3c-6.3,0-15.5-2-20.2-8.9
				c-1.2-1.7-2.1-3.8-3-7.9l16.1-6.4c1.9,5,4.2,7.2,8.4,7.2c2.1,0,4.8-0.5,6.5-2.9c0.8-1.2,1.2-2.8,0.6-4.4c-1.1-3.1-5-3-8.5-3.2
				c-5.1-0.4-14.1-2.4-17.3-11.3C90,64.8,91,56.4,95.1,49.3c5.3-9.3,13.2-12.4,20-13.5C116.2,35.5,118.1,35.4,120.1,35.4z"/>
		</g>
		<g>
			<path class="st2" d="M61,114.7c16.8,0,26.5,9.5,29.2,23.2l-20.4,7.9c-1-5.2-4.6-8.8-10.9-8.8c-7.4,0-13.6,6.8-14.5,14.7
				c-0.9,8,3.8,14.7,11.2,14.7c6.3,0,10.4-3.5,12.8-8.7l19.3,5.9c-5.4,14.5-17.6,25.1-35.1,25.1c-18.9,0-32.4-16.6-30.2-37.1
				C24.8,131.3,42.1,114.7,61,114.7z"/>
		</g>
		<g>
			<path class="st2" d="M130,115l29.6,71.2H136l-2.6-8.6h-23l-4.5,8.6H82.4L128,115H130z M118.1,162.8h11l-4-13.4L118.1,162.8"/>
		</g>
		<polygon class="st2" points="292.6,53.2 247.1,53.2 248.7,36.1 293.1,35.8 		"/>
	</g>
</g>
<rect x="255.9" y="53.2" class="st3" width="161.1" height="98.5"/>
<g>
	<defs>
		<rect id="SVGID_1_" x="256.6" y="53.2" width="161.1" height="98.5"/>
	</defs>
	<clipPath id="SVGID_2_">
		<use xlink:href="#SVGID_1_"  style="overflow:visible;"/>
	</clipPath>
	<g class="st4">
		<rect x="253.7" y="57.4" class="st5" width="175.9" height="217.3"/>
		<text transform="matrix(1 0 0 1 253.7438 67.6236)"><tspan x="0" y="0" class="st2 st6 st7">404 Page not found </tspan><tspan x="0" y="19.2" class="st2 st6 st7">404 Page not found </tspan><tspan x="0" y="38.4" class="st2 st6 st7">404 Page not found </tspan><tspan x="0" y="57.6" class="st2 st6 st7">404 Page not found </tspan><tspan x="0" y="76.8" class="st2 st6 st7">404 Page not found</tspan></text>
	</g>
</g>
<g>
	<defs>
		<rect id="SVGID_3_" x="353.8" y="17.3" width="161.1" height="98.5"/>
	</defs>
	<clipPath id="SVGID_4_">
		<use xlink:href="#SVGID_3_"  style="overflow:visible;"/>
	</clipPath>
	<g class="st8">
		<g>
			<path class="st1" d="M547.3,80l-3.5,31.6l-11.1-8.4l5-6.3l-5.6-6.4l7.7-69.2L497.6,1.1l-3.5,31.6l-16.3-12.4L435.6,0.2L473,28.6
				l20.5,9.7l-2.9,25.8l-26.2-12.5c-0.3-12.9-6.8-23.6-17.3-28.6L404.9,2.9c11.9,5.7,18.7,18.7,17.1,33.9l-28.5-13.6
				c-1.2-0.6-2.6-0.9-4.1-1l0.2-2L347.4,0.1l-3.3,38.4l-17.7-18.3L284.2,0.1l12.3,12.7l-25-11.7l-2.2,19.3L230.5,1.9
				c2.3,1.1,4.3,2.6,5.8,4.6c1.7,2.5,2.5,5.2,3,8.9l-10.5,4.4l-8.6-4.1c-0.7-0.3-1.6-0.6-2.6-0.7c-0.4-0.1-0.8-0.1-1.3-0.1
				c-1.8,0-4.4,0.5-5.9,2.4c-1,1.4-1.3,3-0.9,4.2c0.3,1.3,1.2,2.1,2.3,2.6l24.8,11.8c0,0.1,0.1,0.2,0.1,0.3
				c2.2,5.9,1.3,14.9-2.2,21.5L214,47.9c-1.7-0.8-4.2-0.8-6.4-1c-2.4-0.2-5.7-0.7-8.9-2.2l33.9,16.1c-0.8,1.2-1.7,2.3-2.7,3.3
				l-29.2-13.9c1.3,3.4,2.8,5.5,4.9,6.5l21.3,10.1c-5,4-10.6,5.7-15.2,6.3c-1.1,0.2-2.4,0.3-3.8,0.3c-3.7,0-8.5-0.7-12.7-2.7
				l36.7,17.5l13.8,33.1l-17.2-5.9c-2.5-6-6.8-10.8-12.8-13.6l-42.2-20.1c8.1,3.8,13,11.1,14.8,20.2l-14.5,5.6l-11.4-5.4
				c-1.5-0.7-3.3-1.1-5.4-1.1c-7.4,0-13.6,6.8-14.5,14.7c-0.7,6.1,1.9,11.5,6.5,13.7l27.4,13.1c-6.4,6.4-15.1,10.3-25.8,10.3
				c-4.7,0-9-1-12.9-2.8l42.2,20.2c3.9,1.9,8.2,2.9,12.9,2.9c8.5,0,15.7-2.5,21.5-6.6l8.2,3.9h23.6l4.5-8.6h7.6l18,8.6h48.4
				l-1.4-1.8l6,1.8h71.1l0.8-7.4l14.4,6.9c4.2,2,9,2.7,12.8,2.7c1.4,0,2.7-0.1,3.8-0.3c4.9-0.6,10.9-2.6,16-7l10.7,5.1h48.6l0.5-4.4
				l9.3,4.4h21.6l2-17.5l40.6,19.4l8.1-72.2L547.3,80z M306.5,146.8l-1.2-1.5l1.3,0.6L306.5,146.8z M252.7,37.4
				c0.4-0.5,0.8-0.9,1.3-1.2l12,5.7l1-0.4l-0.5,4L252,38.6C252.1,38.2,252.4,37.8,252.7,37.4z"/>
			<polygon class="st1" points="306.6,145.9 306.5,146.8 305.4,145.2 			"/>
		</g>
		<g>
			<path class="st2" d="M415,115.1c2.3,6.1,1.2,15.4-2.5,22.2c-5.8,10.2-15.4,14-22.6,14.9c-1.1,0.2-2.3,0.3-3.8,0.3H386l0.1,0.1
				l-73.5-2.1l7.9-70.3h19.8l-6.1,54.1c0,0,25.9,1,29.8,1s15-5.5,15-5.5c2.1,5,4.2,6.7,8.4,6.8c2.1,0,4.8-0.5,6.5-3
				c0.8-1.2,1.2-2.8,0.6-4.4c-1.1-3.1-5-3-8.5-3.2c-5.1-0.4-14.1-2.4-17.3-11.3c-2.5-6.8-1.5-15.2,2.6-22.3
				c5.3-9.3,13.2-12.4,20-13.5c1.4-0.2,3.2-0.4,5.2-0.4c6.1,0,14.1,1.5,18.3,7.1c1.6,2.5,2.5,5.2,2.9,8.9l-15.5,6.4
				c-1-4.6-2.2-6.3-6.2-6.9c-0.4,0-0.8-0.1-1.3-0.1c-1.8,0-4.3,0.5-5.9,2.4c-1.1,1.4-1.3,3-1,4.2c0.9,3.8,6.3,3.5,9.3,3.8
				C402.9,104.6,411.5,106.1,415,115.1z"/>
		</g>
		<g>
			<polygon class="st2" points="288,80 281.9,134.1 307.9,134.1 306.1,150.2 262.1,150.2 270,80 			"/>
		</g>
		<g>
			<polygon class="st2" points="473.1,80 471.2,96.8 444.1,96.8 443,106.7 469.4,106.7 467.4,124.3 441,124.3 439.9,134.1 
				467,134.1 465.2,150.2 416.5,150.2 424.4,80 			"/>
		</g>
		<g>
			<polygon class="st2" points="485.2,79.1 522.6,107.5 525.7,80 547.3,80 539.2,152.2 537.7,152.2 499.6,123.6 496.6,150.2 
				475,150.2 483,79.1 			"/>
		</g>
		<g>
			<polygon class="st2" points="435.6,0.2 472.9,28.6 476,1.1 497.6,1.1 489.5,73.3 488,73.3 449.9,44.8 446.9,71.4 425.4,71.4 
				433.3,0.2 			"/>
		</g>
		<g>
			<path class="st2" d="M391-0.1c20,0,33.1,16,30.8,35.7c-2.3,19.7-19.1,35.7-39.1,35.7c-19.7,0-33.1-16-30.8-35.7
				C354.2,15.9,371.2-0.1,391-0.1z M385.4,49.9c7.1,0,13.6-6.5,14.5-14.2s-3.8-14.2-11.2-14.2c-7.6,0-13.8,6.5-14.7,14.2
				C373,43.3,377.7,49.9,385.4,49.9"/>
		</g>
		<g>
			<polygon class="st2" points="347.2,0.2 341.2,71.4 320.4,71.4 322.1,45.6 307.6,57.4 294.6,44.9 290.8,71.4 271.5,71.4 
				282.2,0.2 284,0.2 310.9,28 345.6,0.2 			"/>
		</g>
		<g>
			<polygon class="st2" points="271.5,1.1 263.6,71.4 242,71.4 249.9,1.1 			"/>
		</g>
		<g>
			<path class="st2" d="M218-0.5c6.1,0,14.1,1.5,18.3,7.1c1.7,2.5,2.5,5.2,3,8.8l-15.5,6.4c-1-4.5-2.2-6.3-6.2-6.9
				c-0.3-0.1-0.8-0.1-1.2-0.1c-1.8,0-4.4,0.5-5.9,2.4c-1,1.4-1.3,2.9-0.9,4.2c0.9,3.7,6.3,3.5,9.4,3.7c5.8,0.5,14.4,2,17.8,11
				c2.3,6.1,1.2,15.4-2.6,22.2c-5.8,10.2-15.3,14-22.6,14.9c-1.1,0.2-2.4,0.3-3.8,0.3c-6.3,0-15.5-2-20.2-8.9
				c-1.2-1.7-2.1-3.8-3-7.9l16.1-6.4c1.9,5,4.2,7.2,8.4,7.2c2.1,0,4.8-0.5,6.5-2.9c0.8-1.2,1.2-2.8,0.6-4.4c-1.1-3.1-5-3-8.5-3.2
				c-5.1-0.4-14.1-2.4-17.3-11.3c-2.5-6.8-1.5-15.2,2.6-22.3c5.3-9.3,13.2-12.4,20-13.5C214.1-0.4,216-0.5,218-0.5z"/>
		</g>
		<g>
			<path class="st2" d="M158.9,78.8c16.8,0,26.5,9.5,29.2,23.2l-20.4,7.9c-1-5.2-4.6-8.8-10.9-8.8c-7.4,0-13.6,6.8-14.5,14.7
				c-0.9,8,3.8,14.7,11.2,14.7c6.3,0,10.4-3.5,12.8-8.7l19.3,5.9c-5.4,14.5-17.6,25.1-35.1,25.1c-18.9,0-32.4-16.6-30.2-37.1
				C122.7,95.4,140,78.8,158.9,78.8z"/>
		</g>
		<g>
			<path class="st2" d="M227.9,79.1l29.6,71.2h-23.6l-2.6-8.6h-23l-4.5,8.6h-23.5l45.6-71.2H227.9z M216,126.9h11l-4-13.4L216,126.9
				"/>
		</g>
		<polygon class="st2" points="390.5,17.3 345,17.3 346.6,0.2 391,-0.1 		"/>
	</g>
</g>
</svg>
