<svg xmlns="http://www.w3.org/2000/svg"><symbol id="icon-work" viewBox="0 0 24 24"><path fill="none" d="M0 0h24v24H0z"/><path d="M20 6h-4V4c0-1.11-.89-2-2-2h-4c-1.11 0-2 .89-2 2v2H4c-1.11 0-1.99.89-1.99 2L2 19c0 1.11.89 2 2 2h16c1.11 0 2-.89 2-2V8c0-1.11-.89-2-2-2zm-6 0h-4V4h4v2z"/></symbol><symbol id="error" viewBox="0 0 24 24"><path fill="none" d="M0 0h24v24H0z"/><path d="M12 2C6.48 2 2 6.48 2 12s4.48 10 10 10 10-4.48 10-10S17.52 2 12 2zm1 15h-2v-2h2v2zm0-4h-2V7h2v6z"/></symbol><symbol id="icon-contact" viewBox="0 0 24 24"><path d="M20 2H4c-1.1 0-1.99.9-1.99 2L2 22l4-4h14c1.1 0 2-.9 2-2V4c0-1.1-.9-2-2-2zM6 9h12v2H6V9zm8 5H6v-2h8v2zm4-6H6V6h12v2z"/><path fill="none" d="M0 0h24v24H0z"/></symbol><symbol id="arrow-back" viewBox="0 0 24 24"><path fill="none" d="M0 0h24v24H0z"/><path d="M20 11H7.83l5.59-5.59L12 4l-8 8 8 8 1.41-1.41L7.83 13H20v-2z"/></symbol><symbol id="arrow-dropdown" viewBox="0 0 24 24"><path fill="none" d="M0 0h24v24H0z"/><path d="M12 2C6.48 2 2 6.48 2 12s4.48 10 10 10 10-4.48 10-10S17.52 2 12 2zm0 12l-4-4h8l-4 4z"/></symbol><symbol id="radial-0" viewBox="0 0 24 24"><path d="M12 2C6.48 2 2 6.48 2 12s4.48 10 10 10 10-4.48 10-10S17.52 2 12 2zm0 18c-4.42 0-8-3.58-8-8s3.58-8 8-8 8 3.58 8 8-3.58 8-8 8z"/><path fill="none" d="M0 0h24v24H0z"/></symbol><symbol id="radial-1" viewBox="0 0 24 24"><path d="M12 7c-2.76 0-5 2.24-5 5s2.24 5 5 5 5-2.24 5-5-2.24-5-5-5zm0-5C6.48 2 2 6.48 2 12s4.48 10 10 10 10-4.48 10-10S17.52 2 12 2zm0 18c-4.42 0-8-3.58-8-8s3.58-8 8-8 8 3.58 8 8-3.58 8-8 8z"/><path fill="none" d="M0 0h24v24H0z"/></symbol><symbol id="checkbox-1" viewBox="0 0 24 24"><path fill="none" d="M0 0h24v24H0z"/><path d="M19 3H5a2 2 0 0 0-2 2v14a2 2 0 0 0 2 2h14a2 2 0 0 0 2-2V5a2 2 0 0 0-2-2zm-9 14l-5-5 1.41-1.41L10 14.17l7.59-7.59L19 8l-9 9z"/></symbol><symbol id="dropdown-down" viewBox="0 0 24 24"><path d="M7 10l5 5 5-5z"/><path fill="none" d="M0 0h24v24H0z"/></symbol><symbol id="expand-less" viewBox="0 0 24 24"><path d="M12 8l-6 6 1.41 1.41L12 10.83l4.59 4.58L18 14z"/><path fill="none" d="M0 0h24v24H0z"/></symbol><symbol id="arrow-forwards" viewBox="0 0 24 24"><path fill="none" d="M0 0h24v24H0z"/><path d="M12 4l-1.41 1.41L16.17 11H4v2h12.17l-5.58 5.59L12 20l8-8z"/></symbol><symbol id="keyboard-down" viewBox="0 0 24 24"><path d="M7.41 7.84L12 12.42l4.59-4.58L18 9.25l-6 6-6-6z"/><path fill="none" d="M0-.75h24v24H0z"/></symbol><symbol id="keyboard-backspace" viewBox="0 0 24 24"><path fill="none" d="M0 0h24v24H0z"/><path d="M21 11H6.83l3.58-3.59L9 6l-6 6 6 6 1.41-1.41L6.83 13H21z"/></symbol><symbol id="icon-search" viewBox="0 0 24 24"><path d="M15.5 14h-.79l-.28-.27A6.471 6.471 0 0 0 16 9.5 6.5 6.5 0 1 0 9.5 16c1.61 0 3.09-.59 4.23-1.57l.27.28v.79l5 4.99L20.49 19l-4.99-5zm-6 0C7.01 14 5 11.99 5 9.5S7.01 5 9.5 5 14 7.01 14 9.5 11.99 14 9.5 14z"/><path fill="none" d="M0 0h24v24H0z"/></symbol><symbol id="checkbox-0" viewBox="0 0 24 24"><path d="M19 5v14H5V5h14m0-2H5c-1.1 0-2 .9-2 2v14c0 1.1.9 2 2 2h14c1.1 0 2-.9 2-2V5c0-1.1-.9-2-2-2z"/><path fill="none" d="M0 0h24v24H0z"/></symbol><symbol id="icon-user" viewBox="0 0 24 24"><path d="M12 2C6.48 2 2 6.48 2 12s4.48 10 10 10 10-4.48 10-10S17.52 2 12 2zm0 3c1.66 0 3 1.34 3 3s-1.34 3-3 3-3-1.34-3-3 1.34-3 3-3zm0 14.2a7.2 7.2 0 0 1-6-3.22c.03-1.99 4-3.08 6-3.08 1.99 0 5.97 1.09 6 3.08a7.2 7.2 0 0 1-6 3.22z"/><path fill="none" d="M0 0h24v24H0z"/></symbol><symbol id="dropdown-up" viewBox="0 0 24 24"><path d="M7 14l5-5 5 5z"/><path fill="none" d="M0 0h24v24H0z"/></symbol><symbol id="icon-money" viewBox="0 0 24 24"><path d="M11.8 10.9c-2.27-.59-3-1.2-3-2.15 0-1.09 1.01-1.85 2.7-1.85 1.78 0 2.44.85 2.5 2.1h2.21c-.07-1.72-1.12-3.3-3.21-3.81V3h-3v2.16c-1.94.42-3.5 1.68-3.5 3.61 0 2.31 1.91 3.46 4.7 4.13 2.5.6 3 1.48 3 2.41 0 .69-.49 1.79-2.7 1.79-2.06 0-2.87-.92-2.98-2.1h-2.2c.12 2.19 1.76 3.42 3.68 3.83V21h3v-2.15c1.95-.37 3.5-1.5 3.5-3.55 0-2.84-2.43-3.81-4.7-4.4z"/><path fill="none" d="M0 0h24v24H0z"/></symbol><symbol id="icon-home" viewBox="0 0 24 24"><path d="M10 20v-6h4v6h5v-8h3L12 3 2 12h3v8z"/><path fill="none" d="M0 0h24v24H0z"/></symbol><symbol id="expand-more" viewBox="0 0 24 24"><path d="M16.59 8.59L12 13.17 7.41 8.59 6 10l6 6 6-6z"/><path fill="none" d="M0 0h24v24H0z"/></symbol></svg>