<?xml version="1.0" encoding="utf-8"?>
<!-- Generator: Adobe Illustrator 22.0.1, SVG Export Plug-In . SVG Version: 6.00 Build 0)  -->
<svg version="1.1" id="Layer_1" xmlns="http://www.w3.org/2000/svg" xmlns:xlink="http://www.w3.org/1999/xlink" x="0px" y="0px"
	 viewBox="0 0 318 243" style="enable-background:new 0 0 318 243;" xml:space="preserve">
<style type="text/css">
	.st0{fill:#D6CBEA;}
	.st1{fill:#5B38AE;}
	.st2{fill:#7247BB;}
	.st3{fill:#FFFFFF;}
</style>
<polygon class="st0" points="2457.8,754 1017.8,844 1017.8,214 2457.8,214 "/>
<rect x="1017.8" y="-56" class="st1" width="1440" height="180"/>
<g>
	
		<image style="overflow:visible;opacity:0.3;enable-background:new    ;" width="6032" height="415" xlink:href="815CE2A7F19906DE.png"  transform="matrix(0.2359 0 0 0.2359 1026.5575 123.0501)">
	</image>
	<g>
		<rect x="1017.8" y="124" class="st2" width="1440" height="90"/>
	</g>
</g>
<g>
	<path class="st3" d="M68,195.2c-1.7,1.4-4.1,2.1-7.2,2.1h-6v10.4h-6v-28.8h12.4c2.8,0,5.1,0.7,6.8,2.2s2.5,3.8,2.5,6.9
		C70.6,191.4,69.7,193.8,68,195.2z M63.4,184.9c-0.8-0.6-1.8-1-3.2-1h-5.4v8.5h5.4c1.4,0,2.4-0.3,3.2-1c0.8-0.7,1.1-1.8,1.1-3.3
		S64.2,185.5,63.4,184.9z"/>
	<path class="st3" d="M80.6,207.7H75v-28.8h5.6V207.7z"/>
	<path class="st3" d="M94.5,194.8c1-0.1,1.8-0.3,2.2-0.5c0.8-0.3,1.2-0.9,1.2-1.6c0-0.9-0.3-1.5-0.9-1.8s-1.5-0.5-2.7-0.5
		c-1.3,0-2.3,0.3-2.8,1c-0.4,0.5-0.7,1.1-0.8,2h-5.4c0.1-1.9,0.6-3.4,1.6-4.6c1.5-1.9,4-2.8,7.6-2.8c2.3,0,4.4,0.5,6.2,1.4
		s2.7,2.7,2.7,5.2v9.8c0,0.7,0,1.5,0,2.5c0,0.7,0.1,1.2,0.3,1.5c0.2,0.3,0.5,0.5,0.8,0.6v0.8h-6.1c-0.2-0.4-0.3-0.8-0.4-1.2
		s-0.1-0.8-0.2-1.3c-0.8,0.8-1.7,1.5-2.7,2.1c-1.2,0.7-2.6,1-4.1,1c-1.9,0-3.5-0.5-4.8-1.7c-1.3-1.1-1.9-2.7-1.9-4.7
		c0-2.6,1-4.5,3-5.7c1.1-0.6,2.8-1.1,4.9-1.4L94.5,194.8z M97.9,197.3c-0.4,0.2-0.7,0.4-1.1,0.5s-0.9,0.3-1.5,0.4l-1.3,0.2
		c-1.2,0.2-2,0.5-2.6,0.8c-0.9,0.5-1.3,1.3-1.3,2.4c0,1,0.3,1.6,0.8,2.1c0.5,0.4,1.2,0.6,2,0.6c1.2,0,2.3-0.4,3.4-1.1s1.6-2,1.6-3.8
		V197.3z"/>
	<path class="st3" d="M121,194c-0.1-0.8-0.4-1.5-0.8-2.1c-0.6-0.9-1.6-1.3-2.9-1.3c-1.9,0-3.2,0.9-3.9,2.8c-0.4,1-0.5,2.3-0.5,3.9
		c0,1.6,0.2,2.8,0.5,3.8c0.7,1.8,1.9,2.7,3.8,2.7c1.3,0,2.2-0.4,2.8-1.1s0.9-1.6,1-2.7h5.7c-0.1,1.7-0.7,3.3-1.8,4.8
		c-1.7,2.4-4.3,3.7-7.8,3.7c-3.4,0-6-1-7.6-3s-2.4-4.7-2.4-7.9c0-3.7,0.9-6.5,2.7-8.5s4.2-3,7.4-3c2.7,0,4.9,0.6,6.6,1.8
		s2.7,3.3,3,6.3H121V194z"/>
	<path class="st3" d="M144.4,186.8c1.5,0.7,2.7,1.7,3.7,3.1c0.9,1.3,1.4,2.7,1.7,4.4c0.1,1,0.2,2.4,0.2,4.2h-15.5
		c0.1,2.1,0.8,3.6,2.2,4.5c0.9,0.5,1.9,0.8,3.1,0.8c1.3,0,2.3-0.3,3.1-1c0.4-0.4,0.8-0.8,1.1-1.5h5.7c-0.1,1.3-0.8,2.5-2.1,3.8
		c-1.9,2.1-4.6,3.1-8,3.1c-2.8,0-5.3-0.9-7.5-2.6c-2.2-1.7-3.2-4.6-3.2-8.5c0-3.7,1-6.5,2.9-8.5s4.5-3,7.6-3
		C141.3,185.8,142.9,186.2,144.4,186.8z M136.1,191.7c-0.8,0.8-1.3,1.9-1.5,3.3h9.6c-0.1-1.5-0.6-2.6-1.5-3.4
		c-0.9-0.8-2-1.1-3.3-1.1C138,190.4,136.9,190.8,136.1,191.7z"/>
	<path class="st3" d="M168.1,186.5c1.1,0.5,1.9,1.2,2.6,2.1c0.6,0.8,0.9,1.6,1.1,2.5c0.1,0.8,0.2,2.2,0.2,4.1v12.5h-5.7v-13
		c0-1.1-0.2-2.1-0.6-2.8c-0.5-1-1.5-1.5-2.9-1.5c-1.5,0-2.6,0.5-3.3,1.5s-1.1,2.4-1.1,4.2v11.5h-5.6V179h5.6v10.2
		c0.8-1.2,1.7-2.1,2.8-2.6s2.2-0.7,3.3-0.7C165.8,185.8,167,186.1,168.1,186.5z"/>
	<path class="st3" d="M195,205.1c-1.8,2.2-4.5,3.3-8.2,3.3s-6.4-1.1-8.2-3.3s-2.7-4.9-2.7-8s0.9-5.7,2.7-8s4.5-3.4,8.2-3.4
		s6.4,1.1,8.2,3.4s2.7,4.9,2.7,8C197.7,200.2,196.8,202.9,195,205.1z M190.5,202c0.9-1.2,1.3-2.8,1.3-4.9c0-2.1-0.4-3.8-1.3-4.9
		c-0.9-1.2-2.1-1.7-3.8-1.7s-2.9,0.6-3.8,1.7c-0.9,1.2-1.3,2.8-1.3,4.9c0,2.1,0.4,3.8,1.3,4.9s2.1,1.7,3.8,1.7
		S189.7,203.2,190.5,202z"/>
	<path class="st3" d="M207.3,207.7h-5.6v-28.8h5.6V207.7z"/>
	<path class="st3" d="M224.1,186.8c1,0.6,1.8,1.4,2.4,2.4V179h5.6v28.8h-5.4v-2.9c-0.8,1.3-1.7,2.2-2.7,2.8s-2.3,0.9-3.8,0.9
		c-2.5,0-4.6-1-6.3-3s-2.5-4.6-2.5-7.7c0-3.6,0.8-6.5,2.5-8.6s3.9-3.1,6.7-3.1C221.9,185.9,223.1,186.2,224.1,186.8z M225.4,201.9
		c0.8-1.2,1.2-2.7,1.2-4.6c0-2.6-0.7-4.5-2-5.6c-0.8-0.7-1.7-1-2.8-1c-1.6,0-2.8,0.6-3.6,1.8s-1.1,2.8-1.1,4.6c0,2,0.4,3.5,1.2,4.7
		s2,1.8,3.5,1.8S224.6,203.1,225.4,201.9z"/>
	<path class="st3" d="M251.1,186.8c1.5,0.7,2.7,1.7,3.7,3.1c0.9,1.3,1.4,2.7,1.7,4.4c0.1,1,0.2,2.4,0.2,4.2h-15.5
		c0.1,2.1,0.8,3.6,2.2,4.5c0.8,0.5,1.9,0.8,3.1,0.8c1.3,0,2.3-0.3,3.1-1c0.4-0.4,0.8-0.8,1.1-1.5h5.7c-0.1,1.3-0.8,2.5-2.1,3.8
		c-1.9,2.1-4.6,3.1-8,3.1c-2.8,0-5.3-0.9-7.5-2.6c-2.2-1.7-3.2-4.6-3.2-8.5c0-3.7,1-6.5,2.9-8.5s4.5-3,7.6-3
		C247.9,185.8,249.6,186.2,251.1,186.8z M242.8,191.7c-0.8,0.8-1.3,1.9-1.5,3.3h9.6c-0.1-1.5-0.6-2.6-1.5-3.4
		c-0.9-0.8-2-1.1-3.3-1.1C244.6,190.4,243.5,190.8,242.8,191.7z"/>
	<path class="st3" d="M271.3,185.9c0.1,0,0.2,0,0.5,0v5.7c-0.4,0-0.7-0.1-0.9-0.1s-0.5,0-0.7,0c-2.2,0-3.7,0.7-4.5,2.2
		c-0.4,0.8-0.6,2.1-0.6,3.8v10.2h-5.6v-21.3h5.3v3.7c0.9-1.4,1.6-2.4,2.2-2.9c1-0.9,2.4-1.3,4.1-1.3
		C271.1,185.9,271.2,185.9,271.3,185.9z"/>
</g>
<path class="st3" d="M157.8,32.5c-32,0-58,26-58,58s26,58,58,58s58-26,58-58S189.8,32.5,157.8,32.5z M157.8,49.9
	c9.6,0,17.4,7.8,17.4,17.4s-7.8,17.4-17.4,17.4s-17.4-7.8-17.4-17.4S148.2,49.9,157.8,49.9z M157.8,132.3
	c-14.5,0-27.3-7.4-34.8-18.7c0.2-11.5,23.2-17.9,34.8-17.9c11.5,0,34.6,6.3,34.8,17.9C185.1,124.9,172.3,132.3,157.8,132.3z"/>
</svg>
